<svg width="160" height="28" viewBox="0 0 160 28" fill="none" xmlns="http://www.w3.org/2000/svg">
<path d="M11.816 4.344C13.8507 4.344 15.4 4.81067 16.464 5.744C17.528 6.65867 18.06 7.85333 18.06 9.328C18.06 9.75733 18.0227 10.1587 17.948 10.532C17.724 11.8387 17.1547 13.0053 16.24 14.032C15.3253 15.0587 14.1027 15.7867 12.572 16.216L15.736 24H10.332L7.56 16.58H6.412L5.096 24H0.308L3.78 4.344H11.816ZM13.048 10.728C13.0853 10.4293 13.104 10.2333 13.104 10.14C13.104 9.54267 12.908 9.08533 12.516 8.768C12.1427 8.432 11.5827 8.264 10.836 8.264H7.868L7 13.192H9.968C10.8453 13.192 11.536 12.9773 12.04 12.548C12.5627 12.1187 12.8987 11.512 13.048 10.728ZM31.1176 8.152C33.1336 8.152 34.7296 8.70267 35.9056 9.804C37.1003 10.8867 37.6976 12.3707 37.6976 14.256C37.6976 14.872 37.651 15.4227 37.5576 15.908C37.483 16.3373 37.371 16.7947 37.2216 17.28H26.3856C26.367 17.392 26.3576 17.5693 26.3576 17.812C26.3576 18.6333 26.5816 19.2587 27.0296 19.688C27.4776 20.1173 28.075 20.332 28.8216 20.332C30.0163 20.332 30.931 19.828 31.5656 18.82H36.6616C35.9896 20.4067 34.8976 21.704 33.3856 22.712C31.8736 23.72 30.175 24.224 28.2896 24.224C26.2736 24.224 24.659 23.664 23.4456 22.544C22.251 21.424 21.6536 19.9027 21.6536 17.98C21.6536 17.4013 21.7096 16.804 21.8216 16.188C22.1016 14.564 22.6803 13.1453 23.5576 11.932C24.435 10.7187 25.527 9.78533 26.8336 9.132C28.1403 8.47867 29.5683 8.152 31.1176 8.152ZM32.8536 14.844C32.891 14.5827 32.9096 14.4053 32.9096 14.312C32.9096 13.5653 32.6763 12.996 32.2096 12.604C31.743 12.1933 31.127 11.988 30.3616 11.988C29.5403 11.988 28.8123 12.24 28.1776 12.744C27.5616 13.2293 27.1136 13.9293 26.8336 14.844H32.8536ZM41.8755 16.188C42.1555 14.564 42.7342 13.1453 43.6115 11.932C44.4889 10.7187 45.5715 9.78533 46.8595 9.132C48.1662 8.47867 49.5849 8.152 51.1155 8.152C53.0755 8.152 54.6249 8.66533 55.7635 9.692C56.9022 10.7187 57.5089 12.1653 57.5835 14.032H52.4875C52.2822 12.8373 51.5542 12.24 50.3035 12.24C49.4262 12.24 48.6702 12.5853 48.0355 13.276C47.4009 13.948 46.9715 14.9187 46.7475 16.188C46.6729 16.58 46.6355 16.9907 46.6355 17.42C46.6355 18.2973 46.8409 18.9693 47.2515 19.436C47.6622 19.9027 48.2222 20.136 48.9315 20.136C50.1635 20.136 51.0875 19.5387 51.7035 18.344H56.8275C56.0995 20.1733 54.9795 21.6107 53.4675 22.656C51.9555 23.7013 50.2289 24.224 48.2875 24.224C46.2715 24.224 44.6662 23.6733 43.4715 22.572C42.2955 21.452 41.7075 19.9307 41.7075 18.008C41.7075 17.4293 41.7635 16.8227 41.8755 16.188ZM69.6367 3.28L65.9687 24H61.1807L64.8487 3.28H69.6367ZM72.6865 16.16C72.9665 14.5547 73.5171 13.1453 74.3385 11.932C75.1598 10.7187 76.1491 9.78533 77.3065 9.132C78.4638 8.47867 79.6865 8.152 80.9745 8.152C82.0758 8.152 82.9998 8.376 83.7465 8.824C84.4931 9.272 85.0345 9.86 85.3705 10.588L85.7625 8.376H90.5505L87.7785 24H82.9905L83.4105 21.788C82.8131 22.516 82.0571 23.104 81.1425 23.552C80.2278 24 79.2198 24.224 78.1185 24.224C77.0171 24.224 76.0371 23.972 75.1785 23.468C74.3385 22.964 73.6851 22.2547 73.2185 21.34C72.7518 20.4067 72.5185 19.3147 72.5185 18.064C72.5185 17.4667 72.5745 16.832 72.6865 16.16ZM84.3905 16.188C84.4465 15.852 84.4745 15.544 84.4745 15.264C84.4745 14.3493 84.2038 13.6307 83.6625 13.108C83.1398 12.5853 82.4678 12.324 81.6465 12.324C80.6945 12.324 79.8265 12.6693 79.0425 13.36C78.2585 14.032 77.7638 14.9653 77.5585 16.16C77.5025 16.496 77.4745 16.804 77.4745 17.084C77.4745 17.9987 77.7358 18.7267 78.2585 19.268C78.7998 19.7907 79.4718 20.052 80.2745 20.052C81.2265 20.052 82.0945 19.7067 82.8785 19.016C83.6625 18.3253 84.1665 17.3827 84.3905 16.188ZM116.778 8.208C118.458 8.208 119.765 8.656 120.698 9.552C121.65 10.4293 122.126 11.6613 122.126 13.248C122.126 13.7333 122.07 14.2747 121.958 14.872L120.334 24H115.574L117.086 15.516C117.124 15.3293 117.142 15.0773 117.142 14.76C117.142 13.976 116.918 13.3787 116.47 12.968C116.041 12.5573 115.434 12.352 114.65 12.352C113.717 12.352 112.933 12.632 112.298 13.192C111.664 13.7333 111.262 14.508 111.094 15.516L109.582 24H104.822L106.334 15.516C106.372 15.3293 106.39 15.0773 106.39 14.76C106.39 13.976 106.166 13.3787 105.718 12.968C105.289 12.5573 104.682 12.352 103.898 12.352C102.965 12.352 102.181 12.632 101.546 13.192C100.912 13.7333 100.51 14.508 100.342 15.516V15.376L98.8304 24H94.0424L96.7864 8.376H101.574L101.238 10.364C101.836 9.692 102.554 9.16933 103.394 8.796C104.253 8.404 105.177 8.208 106.166 8.208C107.361 8.208 108.369 8.46 109.19 8.964C110.03 9.468 110.628 10.196 110.982 11.148C111.673 10.2707 112.532 9.56133 113.558 9.02C114.585 8.47867 115.658 8.208 116.778 8.208ZM136.227 8.152C138.243 8.152 139.839 8.70267 141.015 9.804C142.21 10.8867 142.807 12.3707 142.807 14.256C142.807 14.872 142.76 15.4227 142.667 15.908C142.592 16.3373 142.48 16.7947 142.331 17.28H131.495C131.476 17.392 131.467 17.5693 131.467 17.812C131.467 18.6333 131.691 19.2587 132.139 19.688C132.587 20.1173 133.184 20.332 133.931 20.332C135.126 20.332 136.04 19.828 136.675 18.82H141.771C141.099 20.4067 140.007 21.704 138.495 22.712C136.983 23.72 135.284 24.224 133.399 24.224C131.383 24.224 129.768 23.664 128.555 22.544C127.36 21.424 126.763 19.9027 126.763 17.98C126.763 17.4013 126.819 16.804 126.931 16.188C127.211 14.564 127.79 13.1453 128.667 11.932C129.544 10.7187 130.636 9.78533 131.943 9.132C133.25 8.47867 134.678 8.152 136.227 8.152ZM137.963 14.844C138 14.5827 138.019 14.4053 138.019 14.312C138.019 13.5653 137.786 12.996 137.319 12.604C136.852 12.1933 136.236 11.988 135.471 11.988C134.65 11.988 133.922 12.24 133.287 12.744C132.671 13.2293 132.223 13.9293 131.943 14.844H137.963Z" fill="#0F1216"/>
<path d="M154.52 24.224C153.773 24.224 153.176 24.028 152.728 23.636C152.299 23.2253 152.084 22.712 152.084 22.096C152.084 21.2373 152.401 20.5093 153.036 19.912C153.689 19.3147 154.492 19.016 155.444 19.016C156.172 19.016 156.751 19.2213 157.18 19.632C157.609 20.024 157.824 20.5373 157.824 21.172C157.824 22.012 157.497 22.7307 156.844 23.328C156.209 23.9253 155.435 24.224 154.52 24.224Z" fill="#006FEE"/>
</svg>
